STARTFONT 2.1
COMMENT $XConsortium: luBIS19.bdf,v 1.3 94/04/02 15:59:22 gildea Exp $
COMMENT  (c) Copyright Bigelow & Holmes 1986, 1985. Lucida is a registered
COMMENT  trademark of Bigelow & Holmes. See LEGAL NOTICE file for terms 
COMMENT  of the license. 
COMMENT  
COMMENT  Translation to ISO8859-2 by Cub Soft;  Petr.Kolar@vslib.cz
COMMENT  
FONT -B&H-Lucida-Bold-I-Normal-Sans-19-190-75-75-P-122-ISO8859-2
SIZE 19 72 72
FONTBOUNDINGBOX 39 21 -13 -4
STARTPROPERTIES 20
COMMENT Begin LogicalFontDescription
FONTNAME_REGISTRY ""
FOUNDRY "B&H"
FAMILY_NAME "Lucida"
WEIGHT_NAME "Bold"
SLANT "I"
SETWIDTH_NAME "Normal"
ADD_STYLE_NAME "Sans"
PIXEL_SIZE 19
POINT_SIZE 190
RESOLUTION_X 75
RESOLUTION_Y 75
SPACING "P"
AVERAGE_WIDTH "122"
CHARSET_REGISTRY "ISO8859"
CHARSET_ENCODING "2"
COMMENT END LogicalFontDescription
COPYRIGHT "Copyright Bigelow & Holmes 1986, 1985., Copyright 1996 Cub Soft"
FONT_ASCENT 17
FONT_DESCENT 4
DEFAULT_CHAR 0
FACE_NAME "Lucida Sans Bold Italic"
ENDPROPERTIES
CHARS 191
STARTCHAR space
ENCODING 32
SWIDTH 343 0
DWIDTH 6 0
BBX 1 1 0 0
BITMAP
00
ENDCHAR
STARTCHAR exclam
ENCODING 33
SWIDTH 343 0
DWIDTH 7 0
BBX 6 14 2 0
BITMAP
3c
3c
3c
38
38
38
30
30
70
70
00
00
00
f0
ENDCHAR
STARTCHAR quotedbl
ENCODING 34
SWIDTH 530 0
DWIDTH 10 0
BBX 9 5 3 9
BITMAP
e380
c180
c180
4100
4100
ENDCHAR
STARTCHAR numbersign
ENCODING 35
SWIDTH 687 0
DWIDTH 13 0
BBX 12 14 2 0
BITMAP
0130
0220
0260
0440
7ff0
0880
0880
1100
1100
ffe0
2200
6400
4400
c800
ENDCHAR
STARTCHAR dollar
ENCODING 36
SWIDTH 687 0
DWIDTH 13 0
BBX 11 20 2 -3
BITMAP
0180
0100
0700
0fe0
1fe0
3960
3300
3e00
1e00
0f00
0780
07c0
0dc0
08c0
c980
ff80
ff00
1c00
1800
1800
ENDCHAR
STARTCHAR percent
ENCODING 37
SWIDTH 908 0
DWIDTH 17 0
BBX 16 14 2 0
BITMAP
3802
6c04
c408
c410
cc20
cc40
cc80
7100
021e
0433
0833
1023
2026
401c
ENDCHAR
STARTCHAR ampersand
ENCODING 38
SWIDTH 816 0
DWIDTH 15 0
BBX 14 14 2 0
BITMAP
03c0
0e20
0c30
0c30
0ce0
0fc0
1f8c
7f0c
f318
e398
c1b0
e0e0
71e0
3ff8
ENDCHAR
STARTCHAR apostrophe
ENCODING 39
SWIDTH 265 0
DWIDTH 5 0
BBX 5 6 2 8
BITMAP
78
78
78
30
30
e0
ENDCHAR
STARTCHAR parenleft
ENCODING 40
SWIDTH 386 0
DWIDTH 7 0
BBX 7 18 2 -4
BITMAP
06
0c
1c
18
30
70
60
60
e0
e0
c0
c0
c0
e0
60
60
20
20
ENDCHAR
STARTCHAR parenright
ENCODING 41
SWIDTH 386 0
DWIDTH 7 0
BBX 7 18 1 -4
BITMAP
10
18
1c
0c
0c
0c
0c
0e
0c
0c
1c
1c
18
38
30
60
c0
80
ENDCHAR
STARTCHAR asterisk
ENCODING 42
SWIDTH 464 0
DWIDTH 9 0
BBX 7 6 3 8
BITMAP
1c
5a
ee
38
ec
48
ENDCHAR
STARTCHAR plus
ENCODING 43
SWIDTH 687 0
DWIDTH 13 0
BBX 11 12 2 0
BITMAP
0300
0200
0200
0200
0200
ffe0
0800
0800
0800
0800
0800
1800
ENDCHAR
STARTCHAR comma
ENCODING 44
SWIDTH 343 0
DWIDTH 7 0
BBX 5 7 1 -3
BITMAP
78
78
78
70
30
70
e0
ENDCHAR
STARTCHAR minus
ENCODING 45
SWIDTH 687 0
DWIDTH 13 0
BBX 11 1 2 6
BITMAP
ffe0
ENDCHAR
STARTCHAR period
ENCODING 46
SWIDTH 343 0
DWIDTH 7 0
BBX 4 3 2 0
BITMAP
70
f0
e0
ENDCHAR
STARTCHAR slash
ENCODING 47
SWIDTH 596 0
DWIDTH 11 0
BBX 12 17 -1 -3
BITMAP
0010
0020
0060
0040
0080
0180
0100
0200
0600
0400
0800
1800
1000
2000
6000
4000
8000
ENDCHAR
STARTCHAR zero
ENCODING 48
SWIDTH 687 0
DWIDTH 13 0
BBX 10 14 3 0
BITMAP
0f00
1980
31c0
71c0
71c0
61c0
e1c0
e1c0
e1c0
e180
e380
e300
6600
3c00
ENDCHAR
STARTCHAR one
ENCODING 49
SWIDTH 687 0
DWIDTH 13 0
BBX 6 14 5 0
BITMAP
fc
3c
3c
38
38
78
78
78
70
70
70
f0
f0
e0
ENDCHAR
STARTCHAR two
ENCODING 50
SWIDTH 687 0
DWIDTH 13 0
BBX 12 14 2 0
BITMAP
1fc0
3060
0070
0070
0070
0060
00c0
0300
0600
0c00
1800
7800
f000
ffc0
ENDCHAR
STARTCHAR three
ENCODING 51
SWIDTH 687 0
DWIDTH 13 0
BBX 11 14 3 0
BITMAP
1f80
20e0
00e0
00e0
00c0
0380
3f00
0380
01c0
01c0
01c0
01c0
c380
fe00
ENDCHAR
STARTCHAR four
ENCODING 52
SWIDTH 687 0
DWIDTH 13 0
BBX 12 14 1 0
BITMAP
0070
00f0
01e0
02e0
04e0
0ce0
19e0
31e0
61c0
fff0
03c0
0380
0380
0380
ENDCHAR
STARTCHAR five
ENCODING 53
SWIDTH 687 0
DWIDTH 13 0
BBX 12 14 2 0
BITMAP
1ff0
1000
3000
3000
3e00
0780
01c0
01c0
00c0
00e0
01c0
01c0
c380
fe00
ENDCHAR
STARTCHAR six
ENCODING 54
SWIDTH 687 0
DWIDTH 13 0
BBX 12 14 2 0
BITMAP
07f0
1c30
3c00
3800
7800
7f80
f1c0
e0e0
e060
e060
e0e0
60c0
7180
1f00
ENDCHAR
STARTCHAR seven
ENCODING 55
SWIDTH 687 0
DWIDTH 13 0
BBX 11 14 4 0
BITMAP
ffe0
00c0
0180
0180
0300
0600
0c00
0c00
1800
3000
3000
6000
e000
e000
ENDCHAR
STARTCHAR eight
ENCODING 56
SWIDTH 687 0
DWIDTH 13 0
BBX 12 14 2 0
BITMAP
07c0
1870
1030
3830
3cf0
1fe0
0f80
3fe0
73e0
e0e0
c060
c060
60c0
3f00
ENDCHAR
STARTCHAR nine
ENCODING 57
SWIDTH 687 0
DWIDTH 13 0
BBX 12 14 2 0
BITMAP
0f80
18e0
3060
7070
6070
6070
7070
38f0
1fe0
01e0
01c0
03c0
c380
fe00
ENDCHAR
STARTCHAR colon
ENCODING 58
SWIDTH 343 0
DWIDTH 7 0
BBX 6 10 1 0
BITMAP
3c
3c
78
00
00
00
00
78
f0
f0
ENDCHAR
STARTCHAR semicolon
ENCODING 59
SWIDTH 343 0
DWIDTH 7 0
BBX 6 13 1 -3
BITMAP
3c
3c
38
00
00
00
78
78
70
70
30
70
e0
ENDCHAR
STARTCHAR less
ENCODING 60
SWIDTH 687 0
DWIDTH 13 0
BBX 11 10 1 1
BITMAP
0060
01c0
0700
1c00
f000
6000
1000
0c00
0300
0180
ENDCHAR
STARTCHAR equal
ENCODING 61
SWIDTH 687 0
DWIDTH 13 0
BBX 12 7 2 2
BITMAP
7ff0
0000
0000
0000
0000
0000
ffe0
ENDCHAR
STARTCHAR greater
ENCODING 62
SWIDTH 687 0
DWIDTH 13 0
BBX 11 10 1 1
BITMAP
3000
1800
0600
0300
00c0
01e0
0700
1c00
7000
c000
ENDCHAR
STARTCHAR question
ENCODING 63
SWIDTH 539 0
DWIDTH 10 0
BBX 9 14 3 0
BITMAP
fe00
8380
0380
0380
0700
0e00
1c00
3800
7800
7000
0000
0000
0000
f000
ENDCHAR
STARTCHAR at
ENCODING 64
SWIDTH 833 0
DWIDTH 16 0
BBX 13 14 3 0
BITMAP
07c0
1820
2010
2008
47c8
49c8
91c8
a388
a398
a3a0
9fe0
8000
6100
1f80
ENDCHAR
STARTCHAR A
ENCODING 65
SWIDTH 771 0
DWIDTH 15 0
BBX 13 14 -1 0
BITMAP
01c0
01e0
03e0
07e0
05e0
0ce0
08f0
18f0
10f0
30f0
3ff0
6078
4078
8078
ENDCHAR
STARTCHAR B
ENCODING 66
SWIDTH 660 0
DWIDTH 13 0
BBX 12 14 1 0
BITMAP
1fe0
3c70
3c70
3c70
3860
3840
7880
78c0
7fe0
78e0
7060
f060
f0c0
ff80
ENDCHAR
STARTCHAR C
ENCODING 67
SWIDTH 737 0
DWIDTH 14 0
BBX 14 14 2 0
BITMAP
03fc
0e0c
1800
3800
7000
6000
e000
e000
e000
e000
e000
7000
7830
1ff0
ENDCHAR
STARTCHAR D
ENCODING 68
SWIDTH 822 0
DWIDTH 16 0
BBX 15 14 2 0
BITMAP
1ff8
3e1c
3e0e
3c0e
3c0e
3c0e
7c0e
780e
781c
781c
7838
f030
f0e0
ff80
ENDCHAR
STARTCHAR E
ENCODING 69
SWIDTH 642 0
DWIDTH 12 0
BBX 12 14 2 0
BITMAP
1ff0
3c00
3c00
3c00
3800
3800
7fc0
7800
7800
7800
7000
f000
f000
ffc0
ENDCHAR
STARTCHAR F
ENCODING 70
SWIDTH 614 0
DWIDTH 12 0
BBX 12 14 2 0
BITMAP
1ff0
3c00
3c00
3c00
3800
3800
7fc0
7800
7800
7000
7000
f000
f000
f000
ENDCHAR
STARTCHAR G
ENCODING 71
SWIDTH 755 0
DWIDTH 14 0
BBX 14 14 2 0
BITMAP
03fc
0e0c
1800
3800
7000
6000
e000
e000
e000
e078
e0f0
70f0
79f0
1fe0
ENDCHAR
STARTCHAR H
ENCODING 72
SWIDTH 813 0
DWIDTH 15 0
BBX 15 14 2 0
BITMAP
1c1e
3c1e
3c1e
3c1c
3c1c
383c
7ffc
783c
7838
7078
7078
f078
f078
f070
ENDCHAR
STARTCHAR I
ENCODING 73
SWIDTH 361 0
DWIDTH 7 0
BBX 6 14 2 0
BITMAP
3c
3c
3c
38
38
38
78
78
70
70
70
f0
f0
f0
ENDCHAR
STARTCHAR J
ENCODING 74
SWIDTH 502 0
DWIDTH 10 0
BBX 11 17 0 -3
BITMAP
01e0
01e0
01e0
01c0
03c0
03c0
03c0
03c0
0380
0380
0780
0780
0780
0700
0700
8e00
fc00
ENDCHAR
STARTCHAR K
ENCODING 75
SWIDTH 753 0
DWIDTH 14 0
BBX 12 14 2 0
BITMAP
1c30
3c20
3c40
3cc0
3d80
3900
7b00
7f00
7b80
79c0
71c0
f0e0
f0e0
f070
ENDCHAR
STARTCHAR L
ENCODING 76
SWIDTH 623 0
DWIDTH 12 0
BBX 10 14 2 0
BITMAP
1c00
3c00
3c00
3c00
3800
3800
7800
7800
7800
7800
7000
f000
f000
ffc0
ENDCHAR
STARTCHAR M
ENCODING 77
SWIDTH 940 0
DWIDTH 18 0
BBX 17 14 2 0
BITMAP
1e0780
3e0780
3f0f80
3f0f00
3f1700
371700
772700
776f00
774e00
77ce00
678e00
e70e00
e31e00
e01c00
ENDCHAR
STARTCHAR N
ENCODING 78
SWIDTH 789 0
DWIDTH 15 0
BBX 14 14 2 0
BITMAP
181c
3c1c
3c1c
3e18
3e38
3738
7738
73b8
73b0
71f0
61f0
e0f0
e0f0
e060
ENDCHAR
STARTCHAR O
ENCODING 79
SWIDTH 855 0
DWIDTH 16 0
BBX 13 14 3 0
BITMAP
07c0
0c70
1838
3038
7038
6038
e038
e038
e038
e070
e060
60e0
71c0
1f00
ENDCHAR
STARTCHAR P
ENCODING 80
SWIDTH 645 0
DWIDTH 12 0
BBX 12 14 2 0
BITMAP
1fe0
3c70
3870
3870
3870
3860
79c0
7f00
7000
7000
7000
f000
f000
e000
ENDCHAR
STARTCHAR Q
ENCODING 81
SWIDTH 855 0
DWIDTH 16 0
BBX 14 18 3 -4
BITMAP
07c0
0c70
1838
3038
7038
6038
e038
e038
e038
e070
e070
60e0
71c0
1f80
01e0
00f0
0078
003c
ENDCHAR
STARTCHAR R
ENCODING 82
SWIDTH 708 0
DWIDTH 13 0
BBX 12 14 2 0
BITMAP
1fe0
3870
3870
3870
3870
38e0
7fc0
7f80
7300
7380
7180
f1c0
f1c0
e0e0
ENDCHAR
STARTCHAR S
ENCODING 83
SWIDTH 639 0
DWIDTH 12 0
BBX 11 14 2 0
BITMAP
07e0
1860
3000
3800
3c00
3f00
3f80
1fc0
0fc0
03c0
01c0
0180
c100
fe00
ENDCHAR
STARTCHAR T
ENCODING 84
SWIDTH 747 0
DWIDTH 14 0
BBX 14 14 3 0
BITMAP
fffc
0700
0700
0700
0f00
0f00
0f00
0e00
0e00
1e00
1e00
1e00
1e00
1c00
ENDCHAR
STARTCHAR U
ENCODING 85
SWIDTH 759 0
DWIDTH 14 0
BBX 13 14 3 0
BITMAP
3838
7838
7878
7070
7070
7070
f070
e070
e0e0
e0e0
e0e0
e0c0
7180
3f00
ENDCHAR
STARTCHAR V
ENCODING 86
SWIDTH 765 0
DWIDTH 15 0
BBX 12 14 3 0
BITMAP
f010
f030
f020
7060
7040
7080
7880
7900
7900
3a00
3a00
3c00
3c00
3800
ENDCHAR
STARTCHAR W
ENCODING 87
SWIDTH 991 0
DWIDTH 19 0
BBX 16 14 4 0
BITMAP
c181
c382
c382
c384
c584
e588
ed98
e990
e9b0
f9a0
f1e0
71e0
61c0
61c0
ENDCHAR
STARTCHAR X
ENCODING 88
SWIDTH 696 0
DWIDTH 13 0
BBX 13 14 -1 0
BITMAP
1c18
1c10
0c20
0e40
0e80
0780
0700
0700
0f80
1b80
1180
21c0
61c0
c0e0
ENDCHAR
STARTCHAR Y
ENCODING 89
SWIDTH 681 0
DWIDTH 13 0
BBX 10 14 2 0
BITMAP
c040
e080
e100
6300
7200
7400
3c00
3800
3800
7800
7800
7800
7000
f000
ENDCHAR
STARTCHAR Z
ENCODING 90
SWIDTH 687 0
DWIDTH 13 0
BBX 13 14 1 0
BITMAP
1ff8
0070
00f0
00e0
01c0
0380
0700
0700
0e00
1c00
3800
3800
7000
ffe0
ENDCHAR
STARTCHAR bracketleft
ENCODING 91
SWIDTH 386 0
DWIDTH 7 0
BBX 8 17 1 -3
BITMAP
1f
1c
1c
18
38
38
38
38
38
70
70
70
70
70
e0
f8
f8
ENDCHAR
STARTCHAR backslash
ENCODING 92
SWIDTH 566 0
DWIDTH 11 0
BBX 5 17 2 -3
BITMAP
80
80
80
40
40
40
40
20
20
20
30
10
10
10
08
08
08
ENDCHAR
STARTCHAR bracketright
ENCODING 93
SWIDTH 386 0
DWIDTH 7 0
BBX 8 17 1 -3
BITMAP
1f
1f
07
0e
0e
0e
0e
0e
1c
1c
1c
1c
1c
18
38
38
f8
ENDCHAR
STARTCHAR asciicircum
ENCODING 94
SWIDTH 687 0
DWIDTH 13 0
BBX 9 11 1 2
BITMAP
0200
0200
0600
0e00
0900
1100
3100
2100
4080
4080
8080
ENDCHAR
STARTCHAR underscore
ENCODING 95
SWIDTH 500 0
DWIDTH 10 0
BBX 8 1 1 -3
BITMAP
ff
ENDCHAR
STARTCHAR grave
ENCODING 96
SWIDTH 663 0
DWIDTH 13 0
BBX 4 1 7 13
BITMAP
f0
ENDCHAR
STARTCHAR a
ENCODING 97
SWIDTH 681 0
DWIDTH 13 0
BBX 12 10 2 0
BITMAP
07f0
18f0
30e0
71e0
61e0
e3e0
ede0
fdc0
f9c0
73c0
ENDCHAR
STARTCHAR b
ENCODING 98
SWIDTH 681 0
DWIDTH 13 0
BBX 12 14 1 0
BITMAP
1f00
1e00
3e00
3e00
3e60
3cf0
3df0
7f70
7e70
7c60
7c60
78c0
f180
fe00
ENDCHAR
STARTCHAR c
ENCODING 99
SWIDTH 548 0
DWIDTH 10 0
BBX 9 10 2 0
BITMAP
0f80
1880
3000
6000
e000
e000
e100
e100
e300
3c00
ENDCHAR
STARTCHAR d
ENCODING 100
SWIDTH 681 0
DWIDTH 13 0
BBX 13 14 1 0
BITMAP
0078
0078
0070
0070
07f0
18f0
30f0
71e0
61e0
e3e0
ede0
fde0
f9c0
73c0
ENDCHAR
STARTCHAR e
ENCODING 101
SWIDTH 612 0
DWIDTH 12 0
BBX 10 10 2 0
BITMAP
0780
1dc0
38c0
71c0
f180
f300
fe00
f040
70c0
3f00
ENDCHAR
STARTCHAR f
ENCODING 102
SWIDTH 464 0
DWIDTH 9 0
BBX 11 18 1 -4
BITMAP
03e0
0e20
1e00
1c00
7f80
3c00
3c00
3800
3800
3800
7800
7800
7800
7000
7000
f000
f000
f000
ENDCHAR
STARTCHAR g
ENCODING 103
SWIDTH 674 0
DWIDTH 13 0
BBX 12 14 1 -4
BITMAP
07f0
08e0
18e0
30e0
71e0
63e0
64c0
7cc0
78c0
71c0
01c0
0180
c300
fe00
ENDCHAR
STARTCHAR h
ENCODING 104
SWIDTH 675 0
DWIDTH 13 0
BBX 12 14 1 0
BITMAP
1e00
1c00
3c00
3c00
3ce0
3df0
3bf0
7ae0
7ce0
78e0
78e0
70c0
f1c0
f1c0
ENDCHAR
STARTCHAR i
ENCODING 105
SWIDTH 343 0
DWIDTH 7 0
BBX 7 14 1 0
BITMAP
3e
00
00
00
3c
3c
3c
78
78
78
78
70
f0
f0
ENDCHAR
STARTCHAR j
ENCODING 106
SWIDTH 407 0
DWIDTH 8 0
BBX 11 18 -1 -4
BITMAP
01e0
0000
0000
0000
01c0
0180
0380
0380
0380
0380
0300
0300
0700
0700
0600
0600
8c00
f800
ENDCHAR
STARTCHAR k
ENCODING 107
SWIDTH 666 0
DWIDTH 13 0
BBX 11 14 2 0
BITMAP
1c00
1c00
3c00
3c00
3c60
3840
3880
7900
7b00
7f00
7380
7380
f1c0
f1c0
ENDCHAR
STARTCHAR l
ENCODING 108
SWIDTH 343 0
DWIDTH 7 0
BBX 7 14 1 0
BITMAP
1e
1e
1c
3c
3c
3c
3c
78
78
78
78
70
f0
f0
ENDCHAR
STARTCHAR m
ENCODING 109
SWIDTH 991 0
DWIDTH 19 0
BBX 18 10 1 0
BITMAP
3ce380
39e7c0
3bef80
7eeb80
7cf180
79e380
71e380
71c300
f1c300
f3c700
ENDCHAR
STARTCHAR n
ENCODING 110
SWIDTH 675 0
DWIDTH 13 0
BBX 12 10 1 0
BITMAP
3ce0
39f0
3be0
7ee0
7ce0
78e0
78e0
70c0
f1c0
f1c0
ENDCHAR
STARTCHAR o
ENCODING 111
SWIDTH 663 0
DWIDTH 13 0
BBX 10 10 2 0
BITMAP
0f00
3380
71c0
61c0
e1c0
e180
e380
e300
e600
3c00
ENDCHAR
STARTCHAR p
ENCODING 112
SWIDTH 681 0
DWIDTH 13 0
BBX 13 14 1 -4
BITMAP
1e70
1cf8
3df8
3d38
3a38
3c30
3870
7860
78c0
7f00
7000
7000
f000
f000
ENDCHAR
STARTCHAR q
ENCODING 113
SWIDTH 681 0
DWIDTH 13 0
BBX 12 14 2 -4
BITMAP
07f0
18f0
30f0
61e0
61e0
e3e0
ede0
fde0
f9c0
73c0
03c0
03c0
03c0
0380
ENDCHAR
STARTCHAR r
ENCODING 114
SWIDTH 542 0
DWIDTH 10 0
BBX 10 10 2 0
BITMAP
38c0
3980
7a80
7c00
7800
7000
7000
f000
f000
f000
ENDCHAR
STARTCHAR s
ENCODING 115
SWIDTH 527 0
DWIDTH 10 0
BBX 10 10 1 0
BITMAP
0fc0
1c40
3c00
3e00
3f00
1f80
0f80
0780
c700
fe00
ENDCHAR
STARTCHAR t
ENCODING 116
SWIDTH 437 0
DWIDTH 8 0
BBX 7 13 2 0
BITMAP
1c
38
38
fe
78
70
70
70
e0
e0
e0
fc
78
ENDCHAR
STARTCHAR u
ENCODING 117
SWIDTH 675 0
DWIDTH 13 0
BBX 12 10 2 0
BITMAP
38f0
38f0
30e0
71e0
71e0
73e0
75e0
7dc0
f9c0
73c0
ENDCHAR
STARTCHAR v
ENCODING 118
SWIDTH 630 0
DWIDTH 12 0
BBX 11 10 2 0
BITMAP
f020
f040
f040
7880
7900
7900
7a00
7e00
3c00
3800
ENDCHAR
STARTCHAR w
ENCODING 119
SWIDTH 878 0
DWIDTH 17 0
BBX 15 10 3 0
BITMAP
c1c2
c1c4
c2c4
c2cc
c4c8
c4d8
e8d0
f0f0
f0e0
e0e0
ENDCHAR
STARTCHAR x
ENCODING 120
SWIDTH 563 0
DWIDTH 11 0
BBX 10 10 -1 0
BITMAP
78c0
3c80
3d00
1e00
1e00
1e00
1f00
2f00
4700
c780
ENDCHAR
STARTCHAR y
ENCODING 121
SWIDTH 633 0
DWIDTH 12 0
BBX 11 14 0 -4
BITMAP
7020
7040
78c0
7880
7900
3b00
3a00
3c00
3c00
3800
3000
3000
6000
c000
ENDCHAR
STARTCHAR z
ENCODING 122
SWIDTH 630 0
DWIDTH 12 0
BBX 12 10 1 0
BITMAP
3ff0
00e0
01c0
0380
0700
0e00
1c00
3800
7000
ffe0
ENDCHAR
STARTCHAR braceleft
ENCODING 123
SWIDTH 386 0
DWIDTH 7 0
BBX 7 17 2 -3
BITMAP
0e
1e
3c
3c
1c
1c
18
78
e0
f0
70
70
70
f0
f0
f0
70
ENDCHAR
STARTCHAR bar
ENCODING 124
SWIDTH 259 0
DWIDTH 5 0
BBX 6 17 1 -3
BITMAP
04
04
08
08
08
10
10
10
30
20
20
20
40
40
40
80
80
ENDCHAR
STARTCHAR braceright
ENCODING 125
SWIDTH 386 0
DWIDTH 7 0
BBX 7 17 1 -3
BITMAP
1c
1e
1e
1e
1c
3c
1c
1e
0e
3c
30
70
70
78
78
f0
e0
ENDCHAR
STARTCHAR asciitilde
ENCODING 126
SWIDTH 687 0
DWIDTH 13 0
BBX 12 5 2 3
BITMAP
3830
4c30
4620
8360
81c0
ENDCHAR
STARTCHAR nobreakspace
ENCODING 160
SWIDTH 343 0
DWIDTH 6 0
BBX 1 1 0 0
BITMAP
00
ENDCHAR
STARTCHAR Aogonek
ENCODING 161
SWIDTH 771 0
DWIDTH 15 0
BBX 13 15 -1 -1
BITMAP
01c0
01e0
03e0
07e0
05e0
0ce0
08f0
18f0
10f0
30f0
3ff0
6078
4078
8078
0780
ENDCHAR
STARTCHAR breve
ENCODING 162
SWIDTH 663 0
DWIDTH 13 0
BBX 7 1 6 13
BITMAP
fe
ENDCHAR
STARTCHAR Lstroke
ENCODING 163
SWIDTH 623 0
DWIDTH 12 0
BBX 12 14 0 0
BITMAP
0f00
0f00
0e00
1e00
1e80
1f80
1f80
3e00
7c00
fc00
fc00
bc00
3c00
7ff0
ENDCHAR
STARTCHAR currency
ENCODING 164
SWIDTH 687 0
DWIDTH 13 0
BBX 15 14 0 0
BITMAP
0002
3006
1008
09d0
0e60
0c20
1830
1830
0820
0860
1ce0
27b0
c018
8000
ENDCHAR
STARTCHAR Lcaron
ENCODING 165
SWIDTH 736 0
DWIDTH 14 0
BBX 12 16 2 0
BITMAP
00f0
00f0
1cf0
3c60
3c60
3dc0
3800
3800
7800
7800
7800
7800
7000
f000
f000
ffc0
ENDCHAR
STARTCHAR Sacute
ENCODING 166
SWIDTH 639 0
DWIDTH 12 0
BBX 11 16 2 0
BITMAP
0fc0
0000
07e0
1860
3000
3800
3c00
3f00
3f80
1fc0
0fc0
03c0
01c0
0180
c100
fe00
ENDCHAR
STARTCHAR section
ENCODING 167
SWIDTH 687 0
DWIDTH 13 0
BBX 12 18 2 -4
BITMAP
07f0
1c30
1c00
3f00
3f80
1fc0
1fe0
13e0
2060
3060
7e40
3f80
3fc0
0fc0
07c0
03c0
c380
fe00
ENDCHAR
STARTCHAR diaeresis
ENCODING 168
SWIDTH 663 0
DWIDTH 13 0
BBX 7 1 6 13
BITMAP
ee
ENDCHAR
STARTCHAR Scaron
ENCODING 169
SWIDTH 639 0
DWIDTH 12 0
BBX 11 16 2 0
BITMAP
1fc0
0000
07e0
1860
3000
3800
3c00
3f00
3f80
1fc0
0fc0
03c0
01c0
0180
c100
fe00
ENDCHAR
STARTCHAR Scedilla
ENCODING 170
SWIDTH 639 0
DWIDTH 12 0
BBX 11 18 2 -4
BITMAP
07e0
1860
3000
3800
3c00
3f00
3f80
1fc0
0fc0
03c0
01c0
0180
c100
fe00
0300
0600
0100
0e00
ENDCHAR
STARTCHAR Tcaron
ENCODING 171
SWIDTH 747 0
DWIDTH 14 0
BBX 14 16 3 0
BITMAP
0fe0
0000
fffc
0700
0700
0700
0f00
0f00
0f00
0e00
0e00
1e00
1e00
1e00
1e00
1c00
ENDCHAR
STARTCHAR Zacute
ENCODING 172
SWIDTH 687 0
DWIDTH 13 0
BBX 13 16 1 0
BITMAP
03f0
0000
1ff8
0070
00f0
00e0
01c0
0380
0700
0700
0e00
1c00
3800
3800
7000
ffe0
ENDCHAR
STARTCHAR hyphen
ENCODING 173
SWIDTH 289 0
DWIDTH 5 0
BBX 5 1 1 6
BITMAP
f8
ENDCHAR
STARTCHAR Zcaron
ENCODING 174
SWIDTH 687 0
DWIDTH 13 0
BBX 13 16 1 0
BITMAP
07f0
0000
1ff8
0070
00f0
00e0
01c0
0380
0700
0700
0e00
1c00
3800
3800
7000
ffe0
ENDCHAR
STARTCHAR Zabovedot
ENCODING 175
SWIDTH 687 0
DWIDTH 13 0
BBX 13 16 1 0
BITMAP
01c0
0000
1ff8
0070
00f0
00e0
01c0
0380
0700
0700
0e00
1c00
3800
3800
7000
ffe0
ENDCHAR
STARTCHAR degree
ENCODING 176
SWIDTH 241 0
DWIDTH 5 0
BBX 1 3 4 11
BITMAP
80
80
80
ENDCHAR
STARTCHAR aogonek
ENCODING 177
SWIDTH 681 0
DWIDTH 13 0
BBX 12 11 2 -1
BITMAP
07f0
18f0
30e0
71e0
61e0
e3e0
ede0
fdc0
f9c0
73c0
0f00
ENDCHAR
STARTCHAR ogonek
ENCODING 178
SWIDTH 663 0
DWIDTH 13 0
BBX 4 1 4 -3
BITMAP
f0
ENDCHAR
STARTCHAR lstroke
ENCODING 179
SWIDTH 343 0
DWIDTH 7 0
BBX 9 14 0 0
BITMAP
0f00
0e00
0e00
1e80
1f80
1f80
1e00
fc00
fc00
bc00
3c00
3800
7800
7800
ENDCHAR
STARTCHAR acute
ENCODING 180
SWIDTH 663 0
DWIDTH 13 0
BBX 6 1 7 13
BITMAP
fc
ENDCHAR
STARTCHAR lcaron
ENCODING 181
SWIDTH 684 0
DWIDTH 13 0
BBX 13 16 1 0
BITMAP
0078
0078
1e78
1e30
1c30
3ce0
3c00
3c00
3c00
7800
7800
7800
7800
7000
f000
f000
ENDCHAR
STARTCHAR sacute
ENCODING 182
SWIDTH 527 0
DWIDTH 10 0
BBX 10 12 1 0
BITMAP
0fc0
0000
0fc0
1c40
3c00
3e00
3f00
1f80
0f80
0780
c700
fe00
ENDCHAR
STARTCHAR caron
ENCODING 183
SWIDTH 663 0
DWIDTH 13 0
BBX 7 1 6 13
BITMAP
fe
ENDCHAR
STARTCHAR cedilla
ENCODING 184
SWIDTH 663 0
DWIDTH 13 0
BBX 4 4 4 -4
BITMAP
30
60
10
e0
ENDCHAR
STARTCHAR scaron
ENCODING 185
SWIDTH 527 0
DWIDTH 10 0
BBX 10 12 1 0
BITMAP
1fc0
0000
0fc0
1c40
3c00
3e00
3f00
1f80
0f80
0780
c700
fe00
ENDCHAR
STARTCHAR scedilla
ENCODING 186
SWIDTH 527 0
DWIDTH 10 0
BBX 10 14 1 -4
BITMAP
0fc0
1c40
3c00
3e00
3f00
1f80
0f80
0780
c700
fe00
0600
0c00
0200
1c00
ENDCHAR
STARTCHAR tcaron
ENCODING 187
SWIDTH 684 0
DWIDTH 13 0
BBX 12 17 2 0
BITMAP
00f0
00f0
00f0
0060
1c60
39c0
3800
fe00
7800
7000
7000
7000
e000
e000
e000
fc00
7800
ENDCHAR
STARTCHAR zacute
ENCODING 188
SWIDTH 630 0
DWIDTH 12 0
BBX 12 12 1 0
BITMAP
07e0
0000
3ff0
00e0
01c0
0380
0700
0e00
1c00
3800
7000
ffe0
ENDCHAR
STARTCHAR doubleacute
ENCODING 189
SWIDTH 663 0
DWIDTH 13 0
BBX 8 1 6 13
BITMAP
ff
ENDCHAR
STARTCHAR zcaron
ENCODING 190
SWIDTH 630 0
DWIDTH 12 0
BBX 12 12 1 0
BITMAP
0fe0
0000
3ff0
00e0
01c0
0380
0700
0e00
1c00
3800
7000
ffe0
ENDCHAR
STARTCHAR zabovedot
ENCODING 191
SWIDTH 630 0
DWIDTH 12 0
BBX 12 12 1 0
BITMAP
0380
0000
3ff0
00e0
01c0
0380
0700
0e00
1c00
3800
7000
ffe0
ENDCHAR
STARTCHAR Racute
ENCODING 192
SWIDTH 708 0
DWIDTH 13 0
BBX 12 16 2 0
BITMAP
07e0
0000
1fe0
3870
3870
3870
3870
38e0
7fc0
7f80
7300
7380
7180
f1c0
f1c0
e0e0
ENDCHAR
STARTCHAR Aacute
ENCODING 193
SWIDTH 771 0
DWIDTH 15 0
BBX 13 16 -1 0
BITMAP
01f8
0000
01c0
01e0
03e0
07e0
05e0
0ce0
08f0
18f0
10f0
30f0
3ff0
6078
4078
8078
ENDCHAR
STARTCHAR Acircumflex
ENCODING 194
SWIDTH 771 0
DWIDTH 15 0
BBX 13 16 -1 0
BITMAP
07f0
0000
01c0
01e0
03e0
07e0
05e0
0ce0
08f0
18f0
10f0
30f0
3ff0
6078
4078
8078
ENDCHAR
STARTCHAR Abreve
ENCODING 195
SWIDTH 771 0
DWIDTH 15 0
BBX 13 16 -1 0
BITMAP
07f0
0000
01c0
01e0
03e0
07e0
05e0
0ce0
08f0
18f0
10f0
30f0
3ff0
6078
4078
8078
ENDCHAR
STARTCHAR Adiaeresis
ENCODING 196
SWIDTH 771 0
DWIDTH 15 0
BBX 13 16 -1 0
BITMAP
03b8
0000
01c0
01e0
03e0
07e0
05e0
0ce0
08f0
18f0
10f0
30f0
3ff0
6078
4078
8078
ENDCHAR
STARTCHAR Lacute
ENCODING 197
SWIDTH 623 0
DWIDTH 12 0
BBX 10 16 2 0
BITMAP
3f00
0000
1c00
3c00
3c00
3c00
3800
3800
7800
7800
7800
7800
7000
f000
f000
ffc0
ENDCHAR
STARTCHAR Cacute
ENCODING 198
SWIDTH 737 0
DWIDTH 14 0
BBX 14 16 2 0
BITMAP
03f0
0000
03fc
0e0c
1800
3800
7000
6000
e000
e000
e000
e000
e000
7000
7830
1ff0
ENDCHAR
STARTCHAR Ccedilla
ENCODING 199
SWIDTH 737 0
DWIDTH 14 0
BBX 14 18 2 -4
BITMAP
03fc
0e0c
1800
3800
7000
6000
e000
e000
e000
e000
e000
7000
7830
1ff0
0400
0c00
0200
1c00
ENDCHAR
STARTCHAR Ccaron
ENCODING 200
SWIDTH 737 0
DWIDTH 14 0
BBX 14 16 2 0
BITMAP
07f0
0000
03fc
0e0c
1800
3800
7000
6000
e000
e000
e000
e000
e000
7000
7830
1ff0
ENDCHAR
STARTCHAR Eacute
ENCODING 201
SWIDTH 642 0
DWIDTH 12 0
BBX 12 16 2 0
BITMAP
07e0
0000
1ff0
3c00
3c00
3c00
3800
3800
7fc0
7800
7800
7800
7000
f000
f000
ffc0
ENDCHAR
STARTCHAR Eogonek
ENCODING 202
SWIDTH 642 0
DWIDTH 12 0
BBX 12 15 2 -1
BITMAP
1ff0
3c00
3c00
3c00
3800
3800
7fc0
7800
7800
7800
7000
f000
f000
ffc0
0f00
ENDCHAR
STARTCHAR Ediaeresis
ENCODING 203
SWIDTH 642 0
DWIDTH 12 0
BBX 12 16 2 0
BITMAP
0ee0
0000
1ff0
3c00
3c00
3c00
3800
3800
7fc0
7800
7800
7800
7000
f000
f000
ffc0
ENDCHAR
STARTCHAR Ecaron
ENCODING 204
SWIDTH 642 0
DWIDTH 12 0
BBX 12 16 2 0
BITMAP
0fe0
0000
1ff0
3c00
3c00
3c00
3800
3800
7fc0
7800
7800
7800
7000
f000
f000
ffc0
ENDCHAR
STARTCHAR Iacute
ENCODING 205
SWIDTH 361 0
DWIDTH 7 0
BBX 8 16 2 0
BITMAP
3f
00
3c
3c
3c
38
38
38
78
78
70
70
70
f0
f0
f0
ENDCHAR
STARTCHAR Icircumflex
ENCODING 206
SWIDTH 361 0
DWIDTH 7 0
BBX 8 16 2 0
BITMAP
7f
00
3c
3c
3c
38
38
38
78
78
70
70
70
f0
f0
f0
ENDCHAR
STARTCHAR Dcaron
ENCODING 207
SWIDTH 822 0
DWIDTH 16 0
BBX 15 16 2 0
BITMAP
07f0
0000
1ff8
3e1c
3e0e
3c0e
3c0e
3c0e
7c0e
780e
781c
781c
7838
f030
f0e0
ff80
ENDCHAR
STARTCHAR Dstroke
ENCODING 208
SWIDTH 822 0
DWIDTH 16 0
BBX 16 14 1 0
BITMAP
1ffc
1f0e
1f07
1f07
1e07
3e07
ffc7
3c07
3c0e
780e
781c
7838
7870
7fc0
ENDCHAR
STARTCHAR Nacute
ENCODING 209
SWIDTH 789 0
DWIDTH 15 0
BBX 14 16 2 0
BITMAP
03f0
0000
181c
3c1c
3c1c
3e18
3e38
3738
7738
73b8
73b0
71f0
61f0
e0f0
e0f0
e060
ENDCHAR
STARTCHAR Ncaron
ENCODING 210
SWIDTH 789 0
DWIDTH 15 0
BBX 14 16 2 0
BITMAP
07f0
0000
181c
3c1c
3c1c
3e18
3e38
3738
7738
73b8
73b0
71f0
61f0
e0f0
e0f0
e060
ENDCHAR
STARTCHAR Oacute
ENCODING 211
SWIDTH 855 0
DWIDTH 16 0
BBX 13 16 3 0
BITMAP
03f0
0000
07c0
0c70
1838
3038
7038
6038
e038
e038
e038
e070
e060
60e0
71c0
1f00
ENDCHAR
STARTCHAR Ocircumflex
ENCODING 212
SWIDTH 855 0
DWIDTH 16 0
BBX 13 16 3 0
BITMAP
07f0
0000
07c0
0c70
1838
3038
7038
6038
e038
e038
e038
e070
e060
60e0
71c0
1f00
ENDCHAR
STARTCHAR Odoubleacute
ENCODING 213
SWIDTH 855 0
DWIDTH 16 0
BBX 13 16 3 0
BITMAP
07f8
0000
07c0
0c70
1838
3038
7038
6038
e038
e038
e038
e070
e060
60e0
71c0
1f00
ENDCHAR
STARTCHAR Odiaeresis
ENCODING 214
SWIDTH 855 0
DWIDTH 16 0
BBX 13 16 3 0
BITMAP
0770
0000
07c0
0c70
1838
3038
7038
6038
e038
e038
e038
e070
e060
60e0
71c0
1f00
ENDCHAR
STARTCHAR multiply
ENCODING 215
SWIDTH 687 0
DWIDTH 13 0
BBX 13 12 1 0
BITMAP
1008
3018
1020
0840
0580
0700
0700
0d00
1080
2040
c060
8040
ENDCHAR
STARTCHAR Rcaron
ENCODING 216
SWIDTH 708 0
DWIDTH 13 0
BBX 12 16 2 0
BITMAP
0fe0
0000
1fe0
3870
3870
3870
3870
38e0
7fc0
7f80
7300
7380
7180
f1c0
f1c0
e0e0
ENDCHAR
STARTCHAR Uring
ENCODING 217
SWIDTH 759 0
DWIDTH 14 0
BBX 13 16 3 0
BITMAP
0380
0000
3838
7838
7878
7070
7070
7070
f070
e070
e0e0
e0e0
e0e0
e0c0
7180
3f00
ENDCHAR
STARTCHAR Uacute
ENCODING 218
SWIDTH 759 0
DWIDTH 14 0
BBX 13 16 3 0
BITMAP
07e0
0000
3838
7838
7878
7070
7070
7070
f070
e070
e0e0
e0e0
e0e0
e0c0
7180
3f00
ENDCHAR
STARTCHAR Udoubleacute
ENCODING 219
SWIDTH 759 0
DWIDTH 14 0
BBX 13 16 3 0
BITMAP
0ff0
0000
3838
7838
7878
7070
7070
7070
f070
e070
e0e0
e0e0
e0e0
e0c0
7180
3f00
ENDCHAR
STARTCHAR Udiaeresis
ENCODING 220
SWIDTH 759 0
DWIDTH 14 0
BBX 13 16 3 0
BITMAP
0ee0
0000
3838
7838
7878
7070
7070
7070
f070
e070
e0e0
e0e0
e0e0
e0c0
7180
3f00
ENDCHAR
STARTCHAR Yacute
ENCODING 221
SWIDTH 681 0
DWIDTH 13 0
BBX 10 16 2 0
BITMAP
1f80
0000
c040
e080
e100
6300
7200
7400
3c00
3800
3800
7800
7800
7800
7000
f000
ENDCHAR
STARTCHAR Tcedilla
ENCODING 222
SWIDTH 747 0
DWIDTH 14 0
BBX 14 18 3 -4
BITMAP
fffc
0700
0700
0700
0f00
0f00
0f00
0e00
0e00
1e00
1e00
1e00
1e00
1c00
0180
0300
0080
0700
ENDCHAR
STARTCHAR ssharp
ENCODING 223
SWIDTH 708 0
DWIDTH 13 0
BBX 13 18 1 -4
BITMAP
03e0
0e70
0e70
1e70
1ce0
1dc0
1dc0
3de0
3df0
38f8
3878
7a38
7a30
7be0
7000
7000
f000
f000
ENDCHAR
STARTCHAR racute
ENCODING 224
SWIDTH 542 0
DWIDTH 10 0
BBX 10 12 2 0
BITMAP
0fc0
0000
38c0
3980
7a80
7c00
7800
7000
7000
f000
f000
f000
ENDCHAR
STARTCHAR aacute
ENCODING 225
SWIDTH 681 0
DWIDTH 13 0
BBX 12 12 2 0
BITMAP
07e0
0000
07f0
18f0
30e0
71e0
61e0
e3e0
ede0
fdc0
f9c0
73c0
ENDCHAR
STARTCHAR acircumflex
ENCODING 226
SWIDTH 681 0
DWIDTH 13 0
BBX 12 12 2 0
BITMAP
0fe0
0000
07f0
18f0
30e0
71e0
61e0
e3e0
ede0
fdc0
f9c0
73c0
ENDCHAR
STARTCHAR abreve
ENCODING 227
SWIDTH 681 0
DWIDTH 13 0
BBX 12 12 2 0
BITMAP
0fe0
0000
07f0
18f0
30e0
71e0
61e0
e3e0
ede0
fdc0
f9c0
73c0
ENDCHAR
STARTCHAR adiaeresis
ENCODING 228
SWIDTH 681 0
DWIDTH 13 0
BBX 12 12 2 0
BITMAP
0ee0
0000
07f0
18f0
30e0
71e0
61e0
e3e0
ede0
fdc0
f9c0
73c0
ENDCHAR
STARTCHAR lacute
ENCODING 229
SWIDTH 343 0
DWIDTH 7 0
BBX 9 16 1 0
BITMAP
1f80
0000
1e00
1e00
1c00
3c00
3c00
3c00
3c00
7800
7800
7800
7800
7000
f000
f000
ENDCHAR
STARTCHAR cacute
ENCODING 230
SWIDTH 548 0
DWIDTH 10 0
BBX 10 12 2 0
BITMAP
0fc0
0000
0f80
1880
3000
6000
e000
e000
e100
e100
e300
3c00
ENDCHAR
STARTCHAR ccedilla
ENCODING 231
SWIDTH 548 0
DWIDTH 10 0
BBX 9 14 2 -4
BITMAP
0f80
1880
3000
6000
e000
e000
e100
e100
e300
3c00
1000
3000
0800
7000
ENDCHAR
STARTCHAR ccaron
ENCODING 232
SWIDTH 548 0
DWIDTH 10 0
BBX 10 12 2 0
BITMAP
1fc0
0000
0f80
1880
3000
6000
e000
e000
e100
e100
e300
3c00
ENDCHAR
STARTCHAR eacute
ENCODING 233
SWIDTH 612 0
DWIDTH 12 0
BBX 11 12 2 0
BITMAP
07e0
0000
0780
1dc0
38c0
71c0
f180
f300
fe00
f040
70c0
3f00
ENDCHAR
STARTCHAR eogonek
ENCODING 234
SWIDTH 612 0
DWIDTH 12 0
BBX 10 11 2 -1
BITMAP
0780
1dc0
38c0
71c0
f180
f300
fe00
f040
70c0
3f00
1e00
ENDCHAR
STARTCHAR ediaeresis
ENCODING 235
SWIDTH 612 0
DWIDTH 12 0
BBX 11 12 2 0
BITMAP
0ee0
0000
0780
1dc0
38c0
71c0
f180
f300
fe00
f040
70c0
3f00
ENDCHAR
STARTCHAR ecaron
ENCODING 236
SWIDTH 612 0
DWIDTH 12 0
BBX 10 12 2 0
BITMAP
1fc0
0000
0780
1dc0
38c0
71c0
f180
f300
fe00
f040
70c0
3f00
ENDCHAR
STARTCHAR iacute
ENCODING 237
SWIDTH 343 0
DWIDTH 7 0
BBX 9 12 1 0
BITMAP
1f80
0000
3c00
3c00
3800
7800
7800
7800
7800
7000
f000
f000
ENDCHAR
STARTCHAR icircumflex
ENCODING 238
SWIDTH 343 0
DWIDTH 7 0
BBX 8 12 1 0
BITMAP
7f
00
3c
3c
38
78
78
78
78
70
f0
f0
ENDCHAR
STARTCHAR dcaron
ENCODING 239
SWIDTH 1000 0
DWIDTH 19 0
BBX 19 16 1 0
BITMAP
0001e0
0001e0
0079e0
0078c0
0070c0
007380
07f000
18f000
30f000
71e000
61e000
e3e000
ede000
fde000
f9c000
73c000
ENDCHAR
STARTCHAR dstroke
ENCODING 240
SWIDTH 894 0
DWIDTH 17 0
BBX 17 14 1 0
BITMAP
007800
003800
07ff80
007000
07f000
18f000
30f000
71e000
61e000
e3e000
ede000
fde000
f9c000
73c000
ENDCHAR
STARTCHAR nacute
ENCODING 241
SWIDTH 675 0
DWIDTH 13 0
BBX 12 12 1 0
BITMAP
07e0
0000
3ce0
39f0
3be0
7ee0
7ce0
78e0
78e0
70c0
f1c0
f1c0
ENDCHAR
STARTCHAR ncaron
ENCODING 242
SWIDTH 675 0
DWIDTH 13 0
BBX 12 12 1 0
BITMAP
0fe0
0000
3ce0
39f0
3be0
7ee0
7ce0
78e0
78e0
70c0
f1c0
f1c0
ENDCHAR
STARTCHAR oacute
ENCODING 243
SWIDTH 663 0
DWIDTH 13 0
BBX 10 12 2 0
BITMAP
0fc0
0000
0f00
3380
71c0
61c0
e1c0
e180
e380
e300
e600
3c00
ENDCHAR
STARTCHAR ocircumflex
ENCODING 244
SWIDTH 663 0
DWIDTH 13 0
BBX 10 12 2 0
BITMAP
1fc0
0000
0f00
3380
71c0
61c0
e1c0
e180
e380
e300
e600
3c00
ENDCHAR
STARTCHAR odoubleacute
ENCODING 245
SWIDTH 663 0
DWIDTH 13 0
BBX 10 12 2 0
BITMAP
3fc0
0000
0f00
3380
71c0
61c0
e1c0
e180
e380
e300
e600
3c00
ENDCHAR
STARTCHAR odiaeresis
ENCODING 246
SWIDTH 663 0
DWIDTH 13 0
BBX 10 12 2 0
BITMAP
1dc0
0000
0f00
3380
71c0
61c0
e1c0
e180
e380
e300
e600
3c00
ENDCHAR
STARTCHAR division
ENCODING 247
SWIDTH 687 0
DWIDTH 13 0
BBX 11 12 2 0
BITMAP
0700
0000
0000
0000
0000
ffe0
0000
0000
0000
0000
0000
1c00
ENDCHAR
STARTCHAR rcaron
ENCODING 248
SWIDTH 542 0
DWIDTH 10 0
BBX 10 12 2 0
BITMAP
1fc0
0000
38c0
3980
7a80
7c00
7800
7000
7000
f000
f000
f000
ENDCHAR
STARTCHAR uring
ENCODING 249
SWIDTH 675 0
DWIDTH 13 0
BBX 12 12 2 0
BITMAP
0380
0000
38f0
38f0
30e0
71e0
71e0
73e0
75e0
7dc0
f9c0
73c0
ENDCHAR
STARTCHAR uacute
ENCODING 250
SWIDTH 675 0
DWIDTH 13 0
BBX 12 12 2 0
BITMAP
07e0
0000
38f0
38f0
30e0
71e0
71e0
73e0
75e0
7dc0
f9c0
73c0
ENDCHAR
STARTCHAR udoubleacute
ENCODING 251
SWIDTH 675 0
DWIDTH 13 0
BBX 12 12 2 0
BITMAP
0ff0
0000
38f0
38f0
30e0
71e0
71e0
73e0
75e0
7dc0
f9c0
73c0
ENDCHAR
STARTCHAR udiaeresis
ENCODING 252
SWIDTH 675 0
DWIDTH 13 0
BBX 12 12 2 0
BITMAP
0ee0
0000
38f0
38f0
30e0
71e0
71e0
73e0
75e0
7dc0
f9c0
73c0
ENDCHAR
STARTCHAR yacute
ENCODING 253
SWIDTH 633 0
DWIDTH 12 0
BBX 11 16 0 -4
BITMAP
07e0
0000
7020
7040
78c0
7880
7900
3b00
3a00
3c00
3c00
3800
3000
3000
6000
c000
ENDCHAR
STARTCHAR tcedilla
ENCODING 254
SWIDTH 437 0
DWIDTH 8 0
BBX 7 17 2 -4
BITMAP
1c
38
38
fe
78
70
70
70
e0
e0
e0
fc
78
0c
18
04
38
ENDCHAR
STARTCHAR abovedot
ENCODING 255
SWIDTH 663 0
DWIDTH 13 0
BBX 3 1 8 13
BITMAP
e0
ENDCHAR
ENDFONT
